# xmcd
# 
# Track frame offsets:
#     183
#     13528
#     31290
#     47363
#     67148
#     84478
#     103113
#     123073
#     141038
#     173405
#     182215
#     188470
#     203215
#     223228
#     257938
#     277718
#     294033
#     316683
# 
# Disc length: 4487
# 
# Revision: 1
# Processed by: cddbd v1.5.2PL0 Copyright (c) Steve Scherf et al.
# Submitted via: fre:ac v1.0.31
# 
DISCID=f0118512
DTITLE=The Animals - with Sonny Boy Williamson
DYEAR=1988
DGENRE=Blues
TTITLE0=Sonny´s Slow Walk
TTITLE1=Pontiac Blues
TTITLE2=My Babe
TTITLE3=I Don´t Care No More
TTITLE4=Baby Don´t You Worry
TTITLE5=Nightime is the Right Time
TTITLE6=I´m Gonna Put You Down
TTITLE7=Fattening Frogs for Snakes
TTITLE8=Nobody But You
TTITLE9=Bye Bye Sonny Bye Bye
TTITLE10=Coda
TTITLE11=Let It Rock
TTITLE12=Gotta Find My Baby
TTITLE13=Bo Diddley
TTITLE14=Almost Grown
TTITLE15=Dimples
TTITLE16=Boom Boom
TTITLE17=C Jam Blues
EXTD=
EXTT0=
EXTT1=
EXTT2=
EXTT3=
EXTT4=
EXTT5=
EXTT6=
EXTT7=
EXTT8=
EXTT9=
EXTT10=
EXTT11=
EXTT12=
EXTT13=
EXTT14=
EXTT15=
EXTT16=
EXTT17=
PLAYORDER=
